<svg width="36" height="17" viewBox="0 0 36 17" fill="none" xmlns="http://www.w3.org/2000/svg">
<path d="M2.485 14.252C3.02167 14.298 3.94933 14.321 5.268 14.321C6.58667 14.321 7.65233 14.252 8.465 14.114C8.58767 14.5127 8.649 14.9037 8.649 15.287C8.649 15.655 8.61833 15.977 8.557 16.253C8.26567 16.1763 7.65233 16.0997 6.717 16.023C5.78167 15.9617 4.73133 15.931 3.566 15.931C2.40067 15.931 1.30433 15.9847 0.277 16.092C0.491667 13.976 0.599 11.4077 0.599 8.387C0.599 5.36633 0.453333 2.95133 0.162 1.142C1.18933 1.24933 2.29333 1.303 3.474 1.303C4.65467 1.303 5.705 1.27233 6.625 1.211C7.56033 1.13433 8.166 1.05767 8.442 0.980999C8.50333 1.257 8.534 1.56367 8.534 1.901C8.534 2.23833 8.47267 2.60633 8.35 3.005C7.53733 2.867 6.487 2.798 5.199 2.798C3.911 2.798 2.99867 2.821 2.462 2.867C2.37 3.741 2.324 5.32033 2.324 7.605C2.646 7.62033 3.42033 7.628 4.647 7.628C5.87367 7.628 6.87033 7.54367 7.637 7.375C7.71367 7.86567 7.752 8.272 7.752 8.594C7.752 8.90067 7.74433 9.15367 7.729 9.353C7.00833 9.23033 6.096 9.169 4.992 9.169C3.888 9.169 2.99867 9.18433 2.324 9.215C2.324 11.2237 2.37767 12.9027 2.485 14.252ZM17.3558 0.934999C18.8891 0.934999 20.0314 1.31833 20.7828 2.085C21.5341 2.83633 21.9098 3.81 21.9098 5.006C21.9098 5.20533 21.8868 5.397 21.8408 5.581C21.5801 5.719 21.2581 5.788 20.8748 5.788C20.5068 5.788 20.1388 5.77267 19.7708 5.742C19.7861 5.61933 19.7938 5.45833 19.7938 5.259C19.7938 4.35433 19.5791 3.63367 19.1498 3.097C18.7204 2.56033 18.1224 2.292 17.3558 2.292C14.8104 2.292 13.5378 4.35433 13.5378 8.479C13.5378 12.5883 14.8104 14.643 17.3558 14.643C17.9538 14.643 18.5748 14.4973 19.2188 14.206C19.8628 13.9147 20.4071 13.516 20.8518 13.01C21.3271 13.3933 21.6338 13.999 21.7718 14.827C20.4071 15.839 18.9351 16.345 17.3558 16.345C15.5004 16.345 14.1128 15.8313 13.1928 14.804C12.4261 13.9607 11.9508 12.6727 11.7668 10.94C11.6901 10.2347 11.6518 9.41433 11.6518 8.479C11.6518 3.44967 13.5531 0.934999 17.3558 0.934999ZM24.4428 8.479C24.4428 3.44967 26.3211 0.934999 30.0778 0.934999C33.8498 0.934999 35.7358 3.44967 35.7358 8.479C35.7358 9.399 35.6975 10.204 35.6208 10.894C35.5595 11.584 35.4061 12.2893 35.1608 13.01C34.9308 13.7307 34.6165 14.321 34.2178 14.781C33.8191 15.241 33.2671 15.6167 32.5618 15.908C31.8718 16.1993 31.0438 16.345 30.0778 16.345C29.1271 16.345 28.2991 16.1993 27.5938 15.908C26.9038 15.6167 26.3595 15.241 25.9608 14.781C25.5621 14.321 25.2401 13.7307 24.9948 13.01C24.7648 12.2893 24.6115 11.584 24.5348 10.894C24.4735 10.204 24.4428 9.399 24.4428 8.479ZM28.1458 14.137C28.6671 14.4743 29.3111 14.643 30.0778 14.643C30.8598 14.643 31.5115 14.4743 32.0328 14.137C32.5695 13.7997 32.9681 13.3167 33.2288 12.688C33.6888 11.5993 33.9188 10.204 33.9188 8.502C33.9188 4.362 32.6385 2.292 30.0778 2.292C27.5325 2.292 26.2598 4.362 26.2598 8.502C26.2598 11.4613 26.8885 13.3397 28.1458 14.137Z" fill="black"/>
</svg>
