<svg width="33" height="34" viewBox="0 0 33 34" fill="none" xmlns="http://www.w3.org/2000/svg">
<path d="M32.8024 24.7606C32.5393 24.493 32.1122 24.493 31.8491 24.7606L25.162 31.5555V0.914809C25.162 0.536535 24.8601 0.229736 24.4878 0.229736C24.1155 0.229736 23.8136 0.536535 23.8136 0.914809V31.5554L17.1263 24.7604C16.8632 24.493 16.4362 24.4928 16.1729 24.7605C15.9096 25.028 15.9096 25.4618 16.173 25.7293L24.0111 33.6937C24.1427 33.8274 24.3153 33.8943 24.4878 33.8943C24.6603 33.8943 24.8329 33.8274 24.9644 33.6936L32.8024 25.7292C33.0658 25.4618 33.0658 25.028 32.8024 24.7606Z" fill="#5E9B10"/>
<path d="M0.75861 1.59989H21C21.3722 1.59989 21.6742 1.29309 21.6742 0.914811C21.6742 0.536535 21.3722 0.229736 21 0.229736H0.75861C0.38634 0.229736 0.0844116 0.536535 0.0844116 0.914811C0.0844116 1.29309 0.38634 1.59989 0.75861 1.59989Z" fill="#5E9B10"/>
<path d="M0.75861 9.61844H21C21.3722 9.61844 21.6742 9.31164 21.6742 8.93336C21.6742 8.55509 21.3722 8.24829 21 8.24829H0.75861C0.38634 8.24829 0.0844116 8.55509 0.0844116 8.93336C0.0844116 9.31164 0.38634 9.61844 0.75861 9.61844Z" fill="#5E9B10"/>
<path d="M0.75861 17.637H21C21.3722 17.637 21.6742 17.3302 21.6742 16.9519C21.6742 16.5736 21.3722 16.2668 21 16.2668H0.75861C0.38634 16.2668 0.0844116 16.5736 0.0844116 16.9519C0.0844116 17.3302 0.38634 17.637 0.75861 17.637Z" fill="#5E9B10"/>
<path d="M13.9596 24.2855H0.75861C0.38634 24.2855 0.0844116 24.5923 0.0844116 24.9706C0.0844116 25.3489 0.38634 25.6557 0.75861 25.6557H13.9596C14.3319 25.6557 14.6338 25.3489 14.6338 24.9706C14.6338 24.5923 14.332 24.2855 13.9596 24.2855Z" fill="#5E9B10"/>
<path d="M13.9596 32.3038H0.75861C0.38634 32.3038 0.0844116 32.6106 0.0844116 32.9889C0.0844116 33.3672 0.38634 33.674 0.75861 33.674H13.9596C14.3319 33.674 14.6338 33.3672 14.6338 32.9889C14.6338 32.6106 14.332 32.3038 13.9596 32.3038Z" fill="#5E9B10"/>
</svg>
