<svg width="40" height="45" viewBox="0 0 40 45" fill="none" xmlns="http://www.w3.org/2000/svg">
<g clip-path="url(#clip0)">
<path d="M24.4816 9.50694C23.707 8.53329 22.499 7.97485 21.1674 7.97485C18.7892 7.97485 16.6634 9.78978 16.4284 12.0232C16.323 13.0447 16.6066 14.0357 17.2269 14.8136C17.9891 15.7694 19.1863 16.3176 20.5119 16.3176C22.9517 16.3176 25.0463 14.5392 25.2803 12.2716C25.3858 11.2688 25.1022 10.287 24.4816 9.50694ZM23.3731 12.0231C23.253 13.1875 21.9426 14.1712 20.5118 14.1712C19.7447 14.1712 19.0525 13.8776 18.6603 13.3855C18.4019 13.0615 18.2929 12.686 18.3356 12.2714C18.4561 11.1259 19.7793 10.121 21.1673 10.121C21.9396 10.121 22.6422 10.4246 23.0468 10.933C23.2245 11.1563 23.4254 11.5263 23.3731 12.0231Z" fill="#2D3720"/>
<path d="M23.5743 32.3936C23.3343 32.2136 22.7726 31.7925 23.226 28.869C23.2377 28.8052 23.2832 28.5695 23.3539 28.2033C23.5149 27.3687 23.8146 25.8155 24.1403 24.0835C24.1411 24.0796 24.1419 24.0756 24.1425 24.0718C24.475 22.1998 24.2118 20.5622 23.3818 19.3359C22.6325 18.2289 21.4462 17.5502 20.0416 17.4251C17.9646 17.2394 15.7918 18.6249 15.1262 19.9887C14.8184 20.593 14.9658 21.0837 15.0818 21.3238C15.2256 21.6207 15.4352 21.7871 15.5884 21.9086C15.8245 22.0958 16.377 22.5341 15.8523 25.4516C15.8032 25.7184 15.0711 29.8789 14.9743 30.4696C14.9736 30.4735 14.9731 30.4775 14.9724 30.4815C14.6839 32.3624 14.9691 34.0063 15.8436 35.1934C17.2517 37.1049 19.395 37.0131 19.4789 37.0131C21.4765 37.013 23.4733 35.6262 24.0812 34.2992C24.3748 33.6861 24.2162 33.1999 24.0943 32.9633C23.9439 32.6708 23.7302 32.5105 23.5743 32.3936ZM22.2598 23.6484C21.9356 25.3724 21.6372 26.9193 21.4767 27.7508C21.3676 28.3161 21.3455 28.4309 21.3377 28.478C21.3372 28.4818 21.3365 28.4856 21.3359 28.4895C20.8484 31.6213 21.3418 32.9919 22.0401 33.7587C21.8493 33.949 21.588 34.1545 21.2645 34.341C20.6282 34.7079 19.9234 34.8977 19.3299 34.8627C18.4653 34.8111 17.7785 34.4624 17.3441 33.8542C16.8383 33.1462 16.6723 32.1074 16.864 30.8503C16.9684 30.2147 17.7015 26.0531 17.7323 25.8876C17.7328 25.8839 17.7335 25.8804 17.7342 25.8767C18.295 22.7603 17.8338 21.3757 17.1538 20.5888C17.3489 20.4042 17.6151 20.2064 17.9428 20.0295C18.5874 19.6815 19.2969 19.5122 19.889 19.5647C20.7521 19.6416 21.4303 20.0103 21.8504 20.631C22.3395 21.3536 22.4812 22.397 22.2598 23.6484Z" fill="#2D3720"/>
<path d="M35.9073 34.6184C38.5503 31.0732 40.0001 26.6939 40.0001 22.2216C40.0001 16.7399 37.9081 11.592 34.1097 7.72607C30.3363 3.88585 25.3255 1.77087 20.0001 1.77087C14.6747 1.77087 9.66373 3.88585 5.89038 7.72616C2.09187 11.5919 0 16.7399 0 22.2217C0 27.7034 2.09187 32.8515 5.8903 36.7172C9.66365 40.5575 14.6745 42.6724 19.9999 42.6724C23.33 42.6724 26.6119 41.8227 29.5209 40.211L36.4912 43.1286C36.6007 43.1745 36.7146 43.1968 36.8277 43.1968C37.0651 43.1968 37.2986 43.0983 37.4791 42.9122C37.7455 42.6374 37.8506 42.2183 37.751 41.8287L35.9073 34.6184ZM29.7988 38.0356C29.5434 37.9286 29.2594 37.9483 29.0174 38.0894C26.2878 39.6836 23.1696 40.5262 20 40.5262C10.0308 40.5262 1.92015 32.3149 1.92015 22.2218C1.92015 12.1286 10.0307 3.91702 19.9999 3.91702C29.9691 3.91702 38.0798 12.1284 38.0798 22.2215C38.0798 26.4213 36.7114 30.3723 34.1226 33.6474C33.9057 33.9217 33.8289 34.3009 33.919 34.6528L35.3815 40.3723L29.7988 38.0356Z" fill="#2D3720"/>
</g>
<defs>
<clipPath id="clip0">
<rect width="40" height="44.7097" fill="white" transform="translate(0 0.129028)"/>
</clipPath>
</defs>
</svg>
