<?xml version="1.0" encoding="utf-8"?>
<!-- Generator: Adobe Illustrator 23.1.0, SVG Export Plug-In . SVG Version: 6.00 Build 0)  -->
<svg version="1.1" id="Слой_1" xmlns="http://www.w3.org/2000/svg" xmlns:xlink="http://www.w3.org/1999/xlink" x="0px" y="0px"
	 viewBox="0 0 512 512" style="enable-background:new 0 0 512 512;" xml:space="preserve">
<style type="text/css">
	.st0{fill:#52565B;}
	.st1{fill:#A8AEB2;}
	.st2{fill:#E3E4E5;}
	.st3{fill:#FD605B;}
	.st4{fill:#402E00;stroke:#000000;stroke-width:6;stroke-miterlimit:10;}
</style>
<path class="st0" d="M179.2,488.8c0-7.7,2.7-14.8,7.1-20.4c-22.9-1.7-51.1,1.7-49.3,29.7c0.3,5,4,8.9,8.4,8.9h53v-0.4
	C187.1,505.7,179.2,502.1,179.2,488.8z"/>
<path class="st0" d="M325.6,468.5c4.5,5.6,7.1,12.7,7.1,20.4c0,13.3-7.9,16.8-19.2,17.8v0.4h53c4.4,0,8.1-3.9,8.4-8.9
	C376.7,470.2,348.5,466.7,325.6,468.5L325.6,468.5z"/>
<path class="st1" d="M148.6,109.8c0.7-0.9,1.3-1.7,2-2.6c0.4-0.6,0.9-1.2,1.4-1.8c1.6-2.2,3.3-4.5,5-6.9
	c13.6-18.8,28.2-30.2,41.9-36.9c-16.1-11.1-44.7-32.1-62.6-52.4C115.3-14.7,93.4,69.7,148.6,109.8L148.6,109.8z"/>
<path class="st1" d="M364.2,350.1c-4.2,34.4-19,64.4-33,86.2c0,0,0,0,0,0.1c-5.2,8-10.8,15.9-16.7,23.1c4.4,2.1,8.2,5.2,11.1,9
	c10.3-0.8,21.7-0.5,30.9,2.6C376.9,456.8,426.6,412.5,364.2,350.1L364.2,350.1z"/>
<path class="st1" d="M197.5,459.5c-6.4-8-12.9-16.9-18.8-26.4c0,0,0,0,0,0c-13.4-21.5-26.9-50.2-30.9-82.9
	c-62.4,62.4-12.7,106.7,7.7,120.9c9.2-3.1,20.6-3.4,30.9-2.6C189.4,464.7,193.2,461.6,197.5,459.5L197.5,459.5z"/>
<path class="st1" d="M167.6,254.1c-51.4,88.9,4.1,173.6,29.9,205.4c21.7-10.7,47,5.2,47,29.3c0,2-0.2,3.7-0.5,5.3
	c7.6,1.1,16,1.2,24.1,0c-0.3-1.6-0.5-3.3-0.5-5.3c0-18.1,14.6-32.7,32.6-32.7c5.2,0,10,1.2,14.4,3.4
	c25.8-31.9,81.2-116.5,29.9-205.4C294,279.3,218.1,279.3,167.6,254.1L167.6,254.1z"/>
<path class="st2" d="M411.5,162.9c-7.3-5.2-24.7-20.5-56.4-64.4c-44.1-61-99.1-43.7-99.1-43.7s-55.1-17.3-99.1,43.7
	c-31.7,43.9-49.1,59.2-56.4,64.4c-2.4,1.7-3.2,5-1.9,7.6c4.3,9,14.5,27.7,30.8,38.4l-8.3,5.8c0,0,33,58.1,134.9,58.1
	s134.9-58.1,134.9-58.1l-8.3-5.8c16.3-10.7,26.5-29.4,30.8-38.4C414.7,167.8,413.9,164.6,411.5,162.9L411.5,162.9z"/>
<path class="st1" d="M355.1,98.5c1.7,2.4,3.4,4.6,5,6.9c0.5,0.6,0.9,1.2,1.4,1.8c0.6,0.9,1.2,1.7,1.9,2.5
	c54.9-40.1,33.1-124.3,12.2-100.5c-17.8,20.3-46.3,41.2-62.5,52.3C326.8,68.2,341.5,79.6,355.1,98.5L355.1,98.5z"/>
<path class="st1" d="M478.5,298.7c-22.7-46.9-9.3-83,1.3-101c3.2-5.5-1.4-12.3-7.7-11.2c-58,10-81.5,71.8-72.1,126.7
	c6.5,37.7-6.6,53.3-17.3,59.7c10.6,16.8,13.2,31.9,11.3,45.1C461,446.5,508.3,360.1,478.5,298.7z"/>
<path class="st1" d="M355.1,98.5c-44.1-61-99.1-43.7-99.1-43.7s-55.1-17.3-99.1,43.7c-15.3,21.2-27.2,35.7-36.4,45.6
	c31.3-5.8,40.2-34.2,76.3-49.1c27.6-11.4,44.8,7,55.1,19.4c2.1,2.5,6,2.5,8.1,0c10.3-12.3,27.5-30.8,55.1-19.4
	c36.1,14.9,45,43.3,76.3,49.1C382.4,134.2,370.4,119.7,355.1,98.5L355.1,98.5z"/>
<path class="st2" d="M148.6,109.8c0.7-0.9,1.3-1.7,2-2.6c0.4-0.6,0.9-1.2,1.4-1.8c1.6-2.2,3.3-4.5,5-6.9c6.4-8.8,13-16,19.6-21.9
	c-17.4-12.9-31-25.9-39-34.9c-2.8-3.1-7.7-2.6-9.3,1.3c-2.9,6.9-6.4,17.6-7.6,31.2C126,87.3,134.9,99.9,148.6,109.8z"/>
<path class="st2" d="M355.1,98.5c1.7,2.4,3.4,4.6,5,6.9c0.5,0.6,0.9,1.2,1.4,1.8c0.6,0.9,1.2,1.7,1.9,2.5
	c13.5-9.9,22.4-22.5,27.8-35.5c-1.2-13.5-4.7-24.3-7.6-31.2c-1.6-3.9-6.5-4.4-9.3-1.3c-8,9-21.5,21.9-38.9,34.8
	C342,82.4,348.7,89.6,355.1,98.5L355.1,98.5z"/>
<path class="st0" d="M268.4,193.6c0,6.1-6.4,14.6-12.4,14.6s-12.4-8.6-12.4-14.6s6.4-6.5,12.4-6.5S268.4,187.5,268.4,193.6z"/>
<path class="st3" d="M256,208.3c0,9.4-6.8,16.3-14.8,17.9c1.4,12.2,7.5,21.4,14.8,21.4s13.4-9.2,14.8-21.4
	C262.8,224.6,256,217.7,256,208.3L256,208.3z"/>
<g>
	<path class="st0" d="M382.6,209c6.9-4.5,12.7-10.5,17.4-16.5c-38-44-65-62.8-81.5-70.8c-35.5-17.3-65.8,32.9-32.8,49.3
		c32.8,16.3,59.7,46.6,77.8,71.6c19.6-14.1,27.4-27.7,27.4-27.7L382.6,209z"/>
	<path class="st0" d="M191.5,121.6c-16.4,8-43.1,26.5-80.5,69.6c4.9,6.5,11,12.9,18.3,17.7l-8.3,5.8c0,0,7.4,13.1,26.1,26.8
		c18-24.7,44.7-54.5,77.1-70.6C257.4,154.5,227,104.3,191.5,121.6z"/>
	<path class="st0" d="M431.1,422.5c8.5-42-20.2-59.6-34.2-65.5c3-6.5,5-15,4.9-26.2c22.1,0,63.4,7,73.3,57.2
		C465.1,405.6,449.7,418.7,431.1,422.5L431.1,422.5z"/>
	<path class="st0" d="M398.6,301.5c-1.2-14.2-0.3-28.5,2.8-42.1c35.6-13.2,57.4-4.7,65.4-0.2c1.3,12,4.9,25.3,11.8,39.5
		c1.2,2.4,2.2,4.9,3.2,7.4C444.9,282.8,408.5,296.9,398.6,301.5z"/>
	<path class="st0" d="M424.5,212.8c11.9-13.3,27.7-22.9,47.7-26.3c6.3-1.1,10.9,5.7,7.7,11.2c-4.3,7.2-9,17.4-11.6,30
		C463.5,222.1,450.2,210,424.5,212.8z"/>
</g>
<path class="st2" d="M300.1,268.9c-27.8,5.4-60.3,5.4-88.1,0c-2.2,13.6-2.9,25.1-2.9,25.1h8.2c-3.3,22.4,0,46.7,0,46.7l6.6-1.9
	c0,42.4,23.6,67.9,29.9,80.8c1.1,1.8,3.4,1.8,4.5,0c6.3-13,29.9-38.4,29.9-80.8l6.6,1.9c0,0,3.3-24.3,0-46.7h8.2
	C303,294,302.3,282.5,300.1,268.9z"/>
<path d="M356.5,476c-0.5,0-1.1-0.1-1.6-0.3c-7.3-2.4-17.1-3.2-29-2.3c-1.7,0.1-3.3-0.6-4.3-1.9c-2.5-3.2-5.8-5.8-9.4-7.6
	c-1.4-0.7-2.3-1.9-2.7-3.4s0-3,1-4.2c5.8-7.2,11.3-14.8,16.4-22.7c12.4-19.3,28-49.4,32.3-84.2c0.2-1.9,1.5-3.5,3.3-4.1
	c1.8-0.6,3.8-0.2,5.2,1.2c23,23,33.6,46.1,31.6,68.7c-2.6,29.7-26.2,50.3-40,59.9C358.6,475.7,357.6,476,356.5,476L356.5,476z
	 M335,463.1c7.9,0,14.8,0.8,20.7,2.4c12.5-9.1,31.6-26.8,33.8-51.2c1.5-17.2-5.8-35.1-21.8-53.4c-4.8,26-15.6,52.2-32.2,78
	c-4.3,6.6-8.8,13-13.5,19.1c2.1,1.5,4.1,3.3,5.9,5.2C330.3,463.2,332.7,463.1,335,463.1L335,463.1z"/>
<path d="M155.5,476c-1,0-2-0.3-2.9-0.9c-13.8-9.6-37.4-30.2-40-59.9c-2-22.6,8.6-45.7,31.6-68.7c1.4-1.4,3.4-1.8,5.2-1.2
	c1.8,0.6,3.1,2.2,3.3,4.1c3.3,26.8,13.5,54,30.2,80.9c0,0.1,0.1,0.1,0.1,0.2c5.6,8.9,11.8,17.7,18.4,25.8c1,1.2,1.3,2.7,1,4.2
	c-0.3,1.5-1.3,2.7-2.7,3.4c-3.7,1.8-6.9,4.4-9.4,7.6c-1,1.3-2.6,2-4.3,1.9c-11.9-0.9-21.6-0.1-29,2.3C156.5,475.9,156,476,155.5,476
	L155.5,476z M144.4,361c-16,18.3-23.4,36.2-21.8,53.4c2.2,24.3,21.3,42,33.8,51.2c7.6-2.1,17-2.9,27.9-2.2c1.8-1.9,3.7-3.6,5.9-5.2
	c-5.5-7.2-10.8-14.7-15.6-22.5c0,0,0,0,0,0C159.1,410.9,149,385.8,144.4,361z"/>
<path d="M198.5,512h-53c-7,0-12.9-6-13.4-13.6c-0.7-10,2.1-18.2,8.1-24.2c8.9-8.8,24.6-12.5,46.5-10.8c1.8,0.1,3.5,1.3,4.2,3
	s0.5,3.7-0.7,5.1c-4,5-6,10.9-6,17.3c0,8.8,3.6,11.9,14.6,12.8c2.6,0.2,4.6,2.4,4.6,5v0.4C203.5,509.8,201.2,512,198.5,512
	L198.5,512z M177,473.1c-14,0-24.2,2.8-29.7,8.3c-4,3.9-5.7,9.3-5.2,16.4c0.1,2.3,1.7,4.2,3.4,4.2h32.1c-2.1-3.2-3.3-7.5-3.3-13.2
	c0-5.5,1.2-10.9,3.4-15.7C177.4,473.1,177.2,473.1,177,473.1L177,473.1z"/>
<path d="M256,500c-4.3,0-8.6-0.3-12.8-0.9c-1.4-0.2-2.6-1-3.4-2.1s-1.1-2.5-0.8-3.9c0.3-1.4,0.4-2.8,0.4-4.3
	c0-9.6-4.9-18.4-13.1-23.5c-8.1-5.1-18.1-5.6-26.7-1.3c-2.1,1-4.6,0.5-6.1-1.3c-26.7-33-83.1-119.7-30.3-211.1
	c1.3-2.3,4.2-3.2,6.6-2c49.1,24.6,123.1,24.6,172.2,0c2.4-1.2,5.2-0.3,6.6,2c52.8,91.4-3.6,178.1-30.3,211.1c-1.5,1.8-4,2.4-6.1,1.3
	c-3.8-1.9-7.9-2.9-12.1-2.9c-15.2,0-27.6,12.4-27.6,27.7c0,1.5,0.1,2.9,0.4,4.3c0.3,1.4,0,2.8-0.8,3.9c-0.8,1.1-2,1.9-3.4,2.1
	C264.6,499.7,260.3,500,256,500z M249.5,489.7c4.3,0.4,8.7,0.4,13,0c0-0.3,0-0.6,0-0.9c0-20.8,16.9-37.7,37.6-37.7
	c4.4,0,8.7,0.8,12.8,2.3c25.8-32.8,73.7-110.8,29.3-192.8c-50.1,23.1-122.4,23.1-172.6,0c-44.4,82,3.6,160,29.3,192.8
	c10.8-4,22.7-2.8,32.7,3.4c11.1,6.9,17.8,18.9,17.8,32C249.5,489.1,249.5,489.4,249.5,489.7L249.5,489.7z"/>
<path d="M239.8,475.9c-2.5,0-4.7-1.9-5-4.5c-4-38.9-20-76-20.1-76.4c-1.1-2.5,0.1-5.5,2.6-6.6s5.5,0.1,6.6,2.6
	c0.7,1.6,16.7,38.9,20.9,79.3c0.3,2.7-1.7,5.2-4.5,5.5C240.1,475.8,240,475.9,239.8,475.9L239.8,475.9z"/>
<path d="M272.2,475.9c-0.2,0-0.3,0-0.5,0c-2.7-0.3-4.7-2.7-4.5-5.5c4.2-40.4,20.2-77.8,20.9-79.3c1.1-2.5,4-3.7,6.6-2.6
	c2.5,1.1,3.7,4,2.6,6.6c-0.2,0.4-16.1,37.5-20.1,76.4C276.9,473.9,274.7,475.9,272.2,475.9L272.2,475.9z"/>
<path d="M256,277.9c-103.6,0-137.8-58.2-139.3-60.7c-1.3-2.2-0.6-5.1,1.5-6.6l2.6-1.8c-13.7-11.3-22.5-27.1-26.8-36.2
	c-2.3-4.9-0.8-10.8,3.5-13.9c5.9-4.2,23.1-18.7,55.2-63.2c23.7-32.9,50.8-43.6,69.3-46.8c16.8-2.9,29.7-0.3,33.9,0.8
	c9.5-2.3,61.6-11.5,103.1,46c32.2,44.6,49.3,59.1,55.2,63.2h0c4.4,3.1,5.9,8.9,3.5,13.9c-4.3,9.1-13.1,24.9-26.8,36.2l2.6,1.8
	c2.1,1.5,2.7,4.3,1.5,6.6C393.8,219.7,359.6,277.9,256,277.9L256,277.9z M128,216c9.4,12.5,45.6,51.9,128,51.9
	c82.8,0,118.7-39.4,128-51.9l-4.2-3c-1.4-1-2.1-2.5-2.1-4.2c0-1.7,0.9-3.2,2.2-4.1c15.6-10.3,25.5-28.9,29-36.4
	c0.2-0.5,0.1-1.2-0.3-1.4c-7.8-5.5-25.7-21.4-57.6-65.5c-41.5-57.5-93-42-93.6-41.9c-1,0.3-2,0.3-3,0c-2.1-0.7-52.3-15.3-93.6,41.9
	c-31.8,44.1-49.7,60-57.6,65.5c-0.4,0.3-0.5,0.9-0.3,1.4c3.5,7.5,13.5,26.1,29,36.4c1.4,0.9,2.2,2.4,2.2,4.1c0,1.7-0.8,3.2-2.1,4.2
	L128,216z"/>
<path d="M363.4,114.7c-1.5,0-3-0.7-4-2l-3.2-4.3c-1.6-2.2-3.3-4.5-5-6.9c-11.7-16.2-25.2-28.1-40.2-35.4c-1.6-0.8-2.7-2.3-2.8-4.1
	c-0.1-1.8,0.7-3.5,2.1-4.5c15.4-10.7,44-31.5,61.5-51.5c5.8-6.6,11.5-6.2,14.4-5.4c7.4,2,13.1,11.1,15.6,24.7
	c5,27.5-4,65.6-35.4,88.6C365.4,114.4,364.4,114.7,363.4,114.7L363.4,114.7z M322.5,61c13.6,8.1,25.9,19.7,36.6,34.6
	c1.7,2.4,3.4,4.6,5,6.8l0.2,0.2c28.2-23.4,30.8-58.2,27.6-75.6c-2.1-11.2-6.2-16.3-8.4-16.9c-1.5-0.4-3.3,1.3-4.2,2.4
	C363.3,30.6,339,49.3,322.5,61z"/>
<path d="M148.6,114.8c-1,0-2.1-0.3-2.9-1c-31.5-22.9-40.6-61-35.6-88.6c2.5-13.7,8.2-22.8,15.6-24.8c2.9-0.8,8.6-1.2,14.4,5.4
	c17.6,20,46.2,40.9,61.7,51.6c1.5,1,2.3,2.7,2.1,4.5s-1.2,3.3-2.8,4.1c-15,7.3-28.4,19.2-40.1,35.3c-1.7,2.4-3.4,4.7-5,6.9l-3.3,4.5
	C151.6,114.1,150.1,114.8,148.6,114.8z M128.7,10c-0.2,0-0.3,0-0.5,0.1c-2.3,0.6-6.4,5.7-8.4,17c-3.2,17.5-0.6,52.3,27.7,75.7
	l0.3-0.3c1.6-2.2,3.3-4.4,5-6.8c10.7-14.8,23-26.4,36.5-34.5c-16.5-11.7-40.9-30.4-56.9-48.6C131.6,11.5,130.1,10,128.7,10z"/>
<path d="M295.9,163.9c-2.8,0-5-2.2-5-5c0-4.2,1.6-8.2,4.6-11.1c3-3,6.9-4.6,11.1-4.6h0.1c8.7,0,15.7,7,15.7,15.7c0,2.8-2.2,5-5,5
	c0,0,0,0,0,0c-2.8,0-5-2.2-5-5c0-3.2-2.6-5.7-5.7-5.7c0,0,0,0,0,0c-1.5,0-3,0.6-4.1,1.7s-1.7,2.5-1.7,4.1
	C301,161.6,298.7,163.9,295.9,163.9C296,163.9,296,163.9,295.9,163.9L295.9,163.9z"/>
<path d="M216.1,163.9c-2.8,0-5-2.2-5-5c0-3.2-2.6-5.7-5.7-5.7c-3.2,0-5.7,2.6-5.7,5.7c0,2.8-2.2,5-5,5s-5-2.2-5-5
	c0-8.7,7.1-15.7,15.7-15.7c8.7,0,15.7,7.1,15.7,15.7C221.1,161.6,218.8,163.9,216.1,163.9z"/>
<path d="M237.8,231.5c-5.1,0-10-1.7-14.2-5c-2.2-1.7-2.5-4.9-0.8-7c1.7-2.2,4.9-2.5,7-0.8c4,3.2,9.1,3.7,13.7,1.5
	c4.7-2.3,7.5-6.7,7.5-11.9c0-2.8,2.2-5,5-5s5,2.2,5,5v1.2c0,0.4,0,0.7-0.1,1c-0.8,8.1-5.6,15.1-13.1,18.6
	C244.6,230.7,241.2,231.5,237.8,231.5L237.8,231.5z"/>
<path d="M274.2,231.5c-3.4,0-6.8-0.8-10.1-2.3c-7.4-3.6-12.3-10.6-13.1-18.6c-0.1-0.3-0.1-0.7-0.1-1v-1.2c0-2.8,2.2-5,5-5s5,2.2,5,5
	c0,5.2,2.8,9.6,7.5,11.9c4.6,2.2,9.7,1.7,13.7-1.5c2.2-1.7,5.3-1.4,7,0.8c1.7,2.2,1.4,5.3-0.8,7
	C284.3,229.8,279.3,231.5,274.2,231.5L274.2,231.5z"/>
<path d="M420.1,428.5c-9.1,0-18.5-2-28-6c-2.1-0.9-3.3-3.1-3-5.3c2-13.5-1.6-27.5-10.5-41.7c-0.7-1.1-0.9-2.5-0.6-3.8
	c0.3-1.3,1.1-2.4,2.3-3.1c10.1-6,20.8-20.4,14.9-54.6c-5-29-0.9-59.4,11.2-83.3c13.8-27.2,36.3-44.2,64.9-49.1
	c4.8-0.8,9.6,1.2,12.4,5.2c2.8,4.1,3,9.2,0.5,13.5c-9.8,16.6-22.9,51.2-1.1,96.3c17.5,36.1,10.7,82.8-16.3,111
	C453.6,421.4,437.4,428.5,420.1,428.5L420.1,428.5z M399.4,414.7c30,11.1,50.4-3.9,60.1-14c23.8-24.9,30-67.8,14.5-99.8
	c-23.9-49.2-9.3-87.4,1.5-105.7c0.7-1.2,0.2-2.3-0.1-2.7c-0.3-0.4-1.1-1.3-2.4-1c-32.1,5.5-49.1,26.9-57.7,43.8
	c-11.2,22-14.9,50.1-10.3,77.1c6.1,35.4-4.2,53.2-15.5,62C397.2,387.9,400.5,401.4,399.4,414.7L399.4,414.7z"/>
<path d="M391.5,149.1c-0.3,0-0.6,0-0.9-0.1c-18-3.3-29-13.4-40.7-24.1c-10-9.2-20.4-18.6-36.6-25.3c-22.5-9.3-37,3.1-49.4,17.9
	c-2,2.4-4.8,3.7-7.9,3.7s-5.9-1.3-7.9-3.7c-12.4-14.8-26.9-27.2-49.4-17.9c-16.2,6.7-26.6,16.2-36.6,25.3
	c-11.7,10.7-22.7,20.7-40.7,24.1c-2.1,0.4-4.2-0.6-5.3-2.5c-1-1.9-0.8-4.2,0.7-5.8c10.6-11.5,22.7-26.7,36-45.2
	c41.5-57.6,93.7-48.2,103.2-46c9.5-2.3,61.6-11.6,103.2,46c13.3,18.5,25.4,33.7,36,45.2c1.5,1.6,1.7,3.9,0.7,5.8
	C395,148.2,393.3,149.1,391.5,149.1z M298.4,86.5c5.7,0,11.9,1.2,18.7,4c17.8,7.4,29.3,17.9,39.5,27.2c6.1,5.5,11.7,10.6,18,14.6
	c-7.3-9-15.2-19.3-23.5-30.8c-41.3-57.2-91.5-42.5-93.6-41.9c-1,0.3-2,0.3-3,0c-2.1-0.7-52.3-15.3-93.6,41.9
	c-8.3,11.5-16.2,21.8-23.5,30.8c6.3-4,11.9-9.1,18-14.6c10.2-9.3,21.7-19.8,39.5-27.2c32.3-13.4,52.3,10.6,60.9,20.8
	c0.1,0.2,0.3,0.2,0.4,0C263,103.1,276.9,86.5,298.4,86.5L298.4,86.5z"/>
<path d="M148.6,114.8c-1,0-2-0.3-2.9-1c-13.3-9.7-23.3-22.4-29.6-37.7c-0.3-0.7-0.4-1.5-0.4-2.3c1.2-14.3,5-25.7,8-32.7
	c1.4-3.3,4.3-5.7,7.8-6.2c3.6-0.6,7.3,0.7,9.8,3.6c4.6,5.2,17.6,18.9,38.3,34.2c1.2,0.9,2,2.3,2,3.8s-0.6,3-1.7,4
	c-6.8,6-13.1,13-18.9,21c-1.7,2.4-3.4,4.7-5,6.9l-3.3,4.5C151.6,114.1,150.1,114.8,148.6,114.8z M125.7,73.4
	c5,11.6,12.3,21.4,21.9,29.3l0.3-0.3c1.6-2.2,3.3-4.4,5-6.8c4.9-6.8,10.3-13,15.9-18.5c-18.6-14.4-30.5-26.9-35-31.9
	c-0.3-0.3-0.6-0.4-0.7-0.4c-0.1,0-0.1,0-0.2,0.3C130.2,51.1,126.9,61,125.7,73.4L125.7,73.4z"/>
<path d="M363.4,114.7c-1.5,0-3-0.7-4-2l-3.2-4.4c-1.6-2.2-3.3-4.5-5-6.9c-5.8-8-12.2-15.2-19-21.1c-1.1-1-1.8-2.5-1.7-4
	s0.8-2.9,2-3.8c20.6-15.3,33.5-28.9,38.1-34.1c2.5-2.8,6.2-4.2,9.8-3.6c3.5,0.6,6.4,2.9,7.8,6.2c3,7,6.8,18.4,8,32.7
	c0.1,0.8-0.1,1.6-0.4,2.3c-6.3,15.3-16.2,27.9-29.5,37.6C365.4,114.4,364.4,114.7,363.4,114.7L363.4,114.7z M343.1,76.9
	c5.7,5.5,11.1,11.8,16,18.7c1.7,2.4,3.4,4.6,5,6.8l0.2,0.2c9.5-7.9,16.8-17.7,21.7-29.2c-1.2-12.5-4.5-22.3-7.1-28.4
	c-0.1-0.2-0.2-0.3-0.2-0.3c-0.1,0-0.4,0-0.7,0.4C373.5,50.1,361.7,62.6,343.1,76.9L343.1,76.9z"/>
<path d="M256,213.2c-9,0-17.4-11.1-17.4-19.6c0-11.5,12.7-11.5,17.4-11.5s17.4,0,17.4,11.5C273.4,202.1,265,213.2,256,213.2
	L256,213.2z M256,192c-5.8,0-7.1,0.7-7.4,1c0,0,0,0.2,0,0.5c0,3.7,4.6,9.6,7.4,9.6c2.8,0,7.4-5.9,7.4-9.6c0-0.3,0-0.5-0.1-0.5
	C263.1,192.8,261.8,192,256,192z"/>
<path d="M256,252.5c-9.9,0-18-10.6-19.8-25.8c-0.3-2.6,1.4-5,4-5.5c5.2-1,10.8-5.5,10.8-13c0-2.8,2.2-5,5-5c2.8,0,5,2.2,5,5
	c0,7.5,5.6,12,10.8,13c2.6,0.5,4.3,2.9,4,5.5C274,241.9,265.9,252.5,256,252.5z M246.8,229.7c1.8,8.1,5.9,12.9,9.2,12.9
	s7.3-4.8,9.2-12.9c-3.7-1.5-6.8-3.9-9.2-6.9C253.6,225.7,250.5,228.1,246.8,229.7z"/>
<path d="M363.5,247.5c-1.5,0-3.1-0.7-4.1-2.1c-16.7-23-43.4-53.8-76-70c-18.5-9.2-19.9-27.6-13.4-40.8c8.1-16.5,28.6-28.2,50.6-17.5
	c16.4,8,44.2,27,83.1,72.1c1.6,1.8,1.6,4.5,0.2,6.3c-4,5.2-8.3,9.6-12.8,13.4l2.6,1.8c2.1,1.5,2.7,4.3,1.5,6.6
	c-0.3,0.6-8.6,14.8-28.8,29.3C365.6,247.2,364.6,247.5,363.5,247.5L363.5,247.5z M303.8,123.1c-11,0-20.3,7-24.7,15.9
	c-4.4,9-4.4,20.9,8.9,27.4c32.5,16.1,59.1,45.6,76.6,69c10.1-7.9,16.3-15.2,19.4-19.4l-4.2-3c-1.4-1-2.1-2.5-2.1-4.2
	c0-1.7,0.9-3.2,2.2-4.1c4.7-3.1,9.3-7.2,13.6-12.3c-36.3-41.5-62-59-77.2-66.4C312,124,307.8,123.1,303.8,123.1L303.8,123.1z"/>
<path d="M147.2,246.6c-1.1,0-2.1-0.3-3-1c-19.3-14.2-27.1-27.8-27.5-28.4c-1.3-2.2-0.6-5.1,1.5-6.6l2.6-1.8
	c-4.8-4-9.5-8.9-13.8-14.6c-1.4-1.9-1.3-4.5,0.2-6.3c38.4-44.3,65.8-63,82.1-70.9c22-10.7,42.5,1,50.6,17.5
	c6.5,13.2,5.1,31.6-13.4,40.8c-32.3,16-58.7,46.4-75.3,69.1c-0.8,1.1-2,1.8-3.3,2C147.7,246.6,147.4,246.6,147.2,246.6z M128,216
	c3,4.1,8.9,11,18.2,18.5c17.3-23,43.7-52.1,75.9-68.1c13.2-6.6,13.3-18.5,8.9-27.4c-6-12.1-21-20.8-37.2-12.9
	c-15,7.3-40.3,24.6-76.2,65.3c4.6,5.6,9.5,10.1,14.6,13.4c1.4,0.9,2.2,2.4,2.2,4.1c0,1.7-0.8,3.2-2.1,4.2L128,216z"/>
<path d="M431.1,427.5c-1.3,0-2.6-0.5-3.5-1.5c-1.2-1.2-1.7-2.9-1.4-4.5c7.6-37.4-16.3-53.6-31.2-59.9c-1.3-0.5-2.2-1.5-2.7-2.8
	c-0.5-1.3-0.4-2.7,0.1-3.9c3-6.5,4.5-14.6,4.4-24.1c0-1.3,0.5-2.6,1.4-3.6s2.2-1.5,3.6-1.5h0c19.9,0,67.3,6,78.2,61.3
	c0.2,1.2,0,2.4-0.6,3.4c-11.3,19.9-28.1,33.1-47.3,36.9C431.7,427.4,431.4,427.5,431.1,427.5L431.1,427.5z M403.3,354.5
	c14.5,7.3,37.8,24.8,33.9,61.1c12.9-4.6,24.2-14.5,32.5-28.5c-9-41.4-41.4-50.2-63.1-51.3C406.4,342.7,405.2,348.9,403.3,354.5z"/>
<path d="M481.7,311.1c-0.9,0-1.9-0.3-2.7-0.8c-34.5-21.9-68.7-8.8-78.3-4.3c-1.5,0.7-3.2,0.6-4.6-0.2c-1.4-0.8-2.3-2.3-2.5-3.9
	c-1.3-14.9-0.3-29.6,2.9-43.7c0.4-1.6,1.6-3,3.1-3.6c37.7-13.9,61.2-4.5,69.6,0.2c1.4,0.8,2.3,2.2,2.5,3.8
	c1.4,12.5,5.2,25.2,11.3,37.8c1.2,2.4,2.3,5.1,3.3,7.8c0.8,2,0.1,4.3-1.5,5.6C484,310.7,482.8,311.1,481.7,311.1L481.7,311.1z
	 M437.1,288c10.5,0,22.2,1.8,34.3,7c-4.7-10.8-7.8-21.7-9.2-32.5c-8.4-4-27.1-9.5-56.5,0.7c-2.1,10.1-2.9,20.5-2.5,31
	C411,291.3,422.9,288,437.1,288L437.1,288z"/>
<path d="M468.2,232.7c-1.5,0-2.9-0.6-3.8-1.8c-4-4.8-15.9-15.8-39.4-13.2c-2.1,0.2-4-0.8-5-2.7c-1-1.8-0.7-4.1,0.7-5.6
	c13.4-15,30.4-24.4,50.6-27.9c4.8-0.8,9.6,1.2,12.4,5.2c2.8,4.1,3,9.2,0.5,13.5c-5.2,8.8-8.9,18.4-11,28.5c-0.4,1.9-1.8,3.4-3.7,3.8
	C469,232.7,468.6,232.7,468.2,232.7L468.2,232.7z M437.1,207.6c13.2,1,22.5,6,28.4,10.6c2.4-8.1,5.8-15.8,10-23
	c0.7-1.2,0.2-2.3-0.1-2.7c-0.3-0.4-1.1-1.3-2.4-1C459.3,193.8,447.3,199.2,437.1,207.6L437.1,207.6z"/>
<path d="M256,425.9c-2.7,0-5.1-1.4-6.5-3.8c-0.1-0.1-0.1-0.3-0.2-0.4c-1.2-2.5-3.3-5.7-5.7-9.5c-8.6-13.5-22.8-35.6-24.5-67
	l-0.4,0.1c-1.4,0.4-2.9,0.2-4.1-0.6c-1.2-0.8-2-2.1-2.2-3.5c-0.1-0.9-2.8-21.4-0.7-42.4H209c-1.4,0-2.7-0.6-3.6-1.6
	c-0.9-1-1.4-2.4-1.4-3.7c0-0.5,0.7-11.9,3-25.6c0.2-1.3,1-2.5,2.1-3.3c1.1-0.8,2.5-1.1,3.8-0.8c27.4,5.4,58.8,5.3,86.2,0
	c1.3-0.3,2.7,0,3.8,0.8c1.1,0.8,1.9,2,2.1,3.3c2.2,13.7,2.9,25.1,3,25.6c0.1,1.4-0.4,2.7-1.4,3.7c-0.9,1-2.3,1.6-3.6,1.6h-2.6
	c2.1,21-0.6,41.4-0.7,42.4c-0.2,1.4-1,2.7-2.2,3.5c-1.2,0.8-2.7,1-4.1,0.6l-0.4-0.1c-1.8,31.3-15.9,53.4-24.5,66.9
	c-2.4,3.8-4.5,7-5.7,9.5c-0.1,0.1-0.1,0.3-0.2,0.4C261.1,424.5,258.7,425.9,256,425.9L256,425.9z M223.9,333.8c1.1,0,2.1,0.3,3,1
	c1.3,0.9,2,2.4,2,4c0,31.9,13.9,53.7,23.1,68.1c1.5,2.3,2.8,4.4,4,6.4c1.2-2,2.5-4.1,4-6.4c9.2-14.4,23.1-36.2,23.1-68.1
	c0-1.6,0.7-3,2-4c1.3-0.9,2.9-1.3,4.4-0.8l0.9,0.2c0.7-8.4,1.6-24.5-0.6-39.5c-0.2-1.4,0.2-2.9,1.2-4c1-1.1,2.3-1.7,3.8-1.7h2.8
	c-0.3-3.5-0.9-8.6-1.7-14.3c-25.6,4.3-54.1,4.3-79.8,0c-0.8,5.7-1.3,10.7-1.7,14.3h2.8c1.5,0,2.8,0.6,3.8,1.7c1,1.1,1.4,2.6,1.2,4
	c-2.2,15-1.3,31.2-0.6,39.5l0.9-0.2C223,333.8,223.4,333.8,223.9,333.8L223.9,333.8z"/>
<path d="M366.5,512h-53c-2.8,0-5-2.2-5-5v-0.4c0-2.6,2-4.8,4.6-5c11.1-0.9,14.6-4.1,14.6-12.8c0-6.3-2.1-12.3-6-17.3
	c-1.2-1.5-1.4-3.4-0.7-5.1c0.7-1.7,2.4-2.8,4.2-3c22-1.7,37.6,2,46.5,10.8c6,6,8.8,14.1,8.1,24.2C379.4,506,373.5,512,366.5,512z
	 M313.5,506.6L313.5,506.6L313.5,506.6z M334.4,502h32.1c1.7,0,3.3-1.9,3.4-4.2c0.5-7.1-1.2-12.5-5.2-16.4
	c-5.5-5.5-15.7-8.3-29.7-8.3c-0.2,0-0.5,0-0.7,0c2.3,4.9,3.4,10.2,3.4,15.7C337.8,494.5,336.5,498.8,334.4,502L334.4,502z"/>
<path class="st4" d="M376.4,512H135.6c-5.5,0-10-4.5-10-10V284.7c0-5.5,4.5-10,10-10h240.7c5.5,0,10,4.5,10,10V502
	C386.3,507.5,381.9,512,376.4,512z"/>
<g>
	<path class="st0" d="M378.5,358.6c-18.1,0-18.2-14.6-18.2-32.6s0.1-32.6,18.2-32.6s32.7,14.6,32.7,32.6S396.5,358.6,378.5,358.6z"
		/>
	<path d="M355.3,326c0-17.6,0-37.6,23.2-37.6c20.8,0,37.7,16.9,37.7,37.6s-16.9,37.6-37.7,37.6C355.3,363.6,355.3,343.6,355.3,326z
		 M406.2,326c0-15.2-12.4-27.6-27.7-27.6c-12.1,0-13.2,7.2-13.2,27.6s1.1,27.6,13.2,27.6C393.7,353.6,406.2,341.2,406.2,326z"/>
</g>
<g>
	<path class="st0" d="M132.8,298.1c18.1,0,18.2,14.6,18.2,32.6c0,18-0.1,32.6-18.2,32.6s-32.7-14.6-32.7-32.6
		C100.1,312.7,114.7,298.1,132.8,298.1z"/>
	<path d="M156,330.7c0,17.6,0,37.6-23.2,37.6c-20.8,0-37.7-16.9-37.7-37.6s16.9-37.6,37.7-37.6C156,293.1,156,313.1,156,330.7z
		 M105.1,330.7c0,15.2,12.4,27.6,27.7,27.6c12.1,0,13.2-7.2,13.2-27.6c0-20.5-1.1-27.6-13.2-27.6
		C117.5,303.1,105.1,315.5,105.1,330.7z"/>
</g>
</svg>
