<svg width="252" height="252" viewBox="0 0 252 252" fill="none" xmlns="http://www.w3.org/2000/svg">
<g filter="url(#filter0_d)">
<circle cx="126" cy="122" r="122" fill="url(#paint0_radial)" fill-opacity="0.55"/>
</g>
<circle cx="126" cy="122" r="96" fill="url(#paint1_radial)"/>
<path d="M98.417 131.577C98.417 130.14 97.9079 129.032 96.8896 128.253C95.8864 127.474 94.0671 126.688 91.4316 125.895C88.7962 125.101 86.6999 124.217 85.1426 123.244C82.1628 121.372 80.6729 118.932 80.6729 115.922C80.6729 113.286 81.7435 111.115 83.8848 109.408C86.041 107.701 88.8337 106.848 92.2627 106.848C94.5387 106.848 96.5677 107.267 98.3496 108.105C100.132 108.944 101.532 110.142 102.55 111.699C103.568 113.242 104.077 114.956 104.077 116.843H98.417C98.417 115.136 97.8779 113.803 96.7998 112.845C95.7367 111.871 94.2093 111.385 92.2178 111.385C90.361 111.385 88.916 111.782 87.8828 112.575C86.8646 113.369 86.3555 114.477 86.3555 115.899C86.3555 117.097 86.9095 118.101 88.0176 118.909C89.1257 119.703 90.9525 120.481 93.498 121.245C96.0436 121.994 98.0876 122.855 99.6299 123.828C101.172 124.786 102.303 125.895 103.021 127.152C103.74 128.395 104.1 129.855 104.1 131.532C104.1 134.257 103.051 136.429 100.955 138.046C98.8737 139.648 96.0436 140.449 92.4648 140.449C90.099 140.449 87.9202 140.015 85.9287 139.146C83.9521 138.263 82.4098 137.05 81.3018 135.508C80.2087 133.965 79.6621 132.169 79.6621 130.117H85.3447C85.3447 131.974 85.9587 133.411 87.1865 134.43C88.4144 135.448 90.1738 135.957 92.4648 135.957C94.4414 135.957 95.9238 135.56 96.9121 134.767C97.9154 133.958 98.417 132.895 98.417 131.577ZM135.186 124.502C135.186 127.706 134.632 130.521 133.523 132.947C132.415 135.358 130.828 137.215 128.762 138.518C126.71 139.805 124.344 140.449 121.664 140.449C119.014 140.449 116.648 139.805 114.566 138.518C112.5 137.215 110.898 135.366 109.76 132.97C108.637 130.574 108.068 127.811 108.053 124.682V122.84C108.053 119.65 108.614 116.835 109.737 114.395C110.875 111.954 112.47 110.09 114.521 108.802C116.588 107.499 118.954 106.848 121.619 106.848C124.285 106.848 126.643 107.492 128.694 108.779C130.761 110.052 132.355 111.894 133.479 114.305C134.602 116.701 135.171 119.493 135.186 122.683V124.502ZM129.503 122.795C129.503 119.171 128.814 116.394 127.437 114.462C126.074 112.53 124.135 111.564 121.619 111.564C119.163 111.564 117.239 112.53 115.847 114.462C114.469 116.379 113.765 119.096 113.735 122.615V124.502C113.735 128.096 114.432 130.873 115.824 132.835C117.232 134.797 119.178 135.777 121.664 135.777C124.18 135.777 126.111 134.819 127.459 132.902C128.822 130.986 129.503 128.186 129.503 124.502V122.795ZM157.938 131.577C157.938 130.14 157.429 129.032 156.411 128.253C155.408 127.474 153.589 126.688 150.953 125.895C148.318 125.101 146.221 124.217 144.664 123.244C141.684 121.372 140.194 118.932 140.194 115.922C140.194 113.286 141.265 111.115 143.406 109.408C145.562 107.701 148.355 106.848 151.784 106.848C154.06 106.848 156.089 107.267 157.871 108.105C159.653 108.944 161.053 110.142 162.071 111.699C163.09 113.242 163.599 114.956 163.599 116.843H157.938C157.938 115.136 157.399 113.803 156.321 112.845C155.258 111.871 153.731 111.385 151.739 111.385C149.882 111.385 148.438 111.782 147.404 112.575C146.386 113.369 145.877 114.477 145.877 115.899C145.877 117.097 146.431 118.101 147.539 118.909C148.647 119.703 150.474 120.481 153.02 121.245C155.565 121.994 157.609 122.855 159.151 123.828C160.694 124.786 161.824 125.895 162.543 127.152C163.262 128.395 163.621 129.855 163.621 131.532C163.621 134.257 162.573 136.429 160.477 138.046C158.395 139.648 155.565 140.449 151.986 140.449C149.62 140.449 147.442 140.015 145.45 139.146C143.474 138.263 141.931 137.05 140.823 135.508C139.73 133.965 139.184 132.169 139.184 130.117H144.866C144.866 131.974 145.48 133.411 146.708 134.43C147.936 135.448 149.695 135.957 151.986 135.957C153.963 135.957 155.445 135.56 156.434 134.767C157.437 133.958 157.938 132.895 157.938 131.577Z" fill="#2D3720"/>
<defs>
<filter id="filter0_d" x="0" y="0" width="252" height="252" filterUnits="userSpaceOnUse" color-interpolation-filters="sRGB">
<feFlood flood-opacity="0" result="BackgroundImageFix"/>
<feColorMatrix in="SourceAlpha" type="matrix" values="0 0 0 0 0 0 0 0 0 0 0 0 0 0 0 0 0 0 127 0"/>
<feOffset dy="4"/>
<feGaussianBlur stdDeviation="2"/>
<feColorMatrix type="matrix" values="0 0 0 0 0.989333 0 0 0 0 1 0 0 0 0 0.466667 0 0 0 0.35 0"/>
<feBlend mode="normal" in2="BackgroundImageFix" result="effect1_dropShadow"/>
<feBlend mode="normal" in="SourceGraphic" in2="effect1_dropShadow" result="shape"/>
</filter>
<radialGradient id="paint0_radial" cx="0" cy="0" r="1" gradientUnits="userSpaceOnUse" gradientTransform="translate(126 122) rotate(90) scale(122)">
<stop offset="0.864583" stop-color="#F6C915"/>
<stop offset="1" stop-color="#F6C915" stop-opacity="0.09"/>
<stop offset="1" stop-color="#F6C915" stop-opacity="0.36"/>
</radialGradient>
<radialGradient id="paint1_radial" cx="0" cy="0" r="1" gradientUnits="userSpaceOnUse" gradientTransform="translate(126 122) rotate(90) scale(96)">
<stop stop-color="#FFDB49"/>
<stop offset="1" stop-color="#F6C915"/>
</radialGradient>
</defs>
</svg>
